<svg xmlns="http://www.w3.org/2000/svg" xmlns:xlink="http://www.w3.org/1999/xlink" width="500" zoomAndPan="magnify" viewBox="0 0 375 374.999991" height="500" preserveAspectRatio="xMidYMid meet" version="1.0"><defs><clipPath id="1b6b74ab87"><path d="M 101 89.855469 L 274.417969 89.855469 L 274.417969 284.855469 L 101 284.855469 Z M 101 89.855469 " clip-rule="nonzero"/></clipPath><clipPath id="fccfb9de15"><path d="M 209.0625 255.382812 C 209.316406 255.382812 209.566406 255.378906 209.8125 255.371094 C 210.03125 255.359375 210.242188 255.347656 210.460938 255.332031 C 210.503906 255.328125 210.550781 255.328125 210.59375 255.324219 C 211.082031 255.277344 211.574219 255.21875 212.082031 255.140625 C 220.074219 253.804688 224.859375 247.269531 225.082031 241.585938 C 225.410156 233.097656 222.40625 226.621094 214.007812 222.421875 C 208.660156 219.75 196.53125 217.992188 188.414062 216.945312 C 186.621094 216.804688 185.207031 216.578125 183.039062 216.328125 L 182.054688 216.257812 L 182.054688 216.546875 C 182.363281 220.121094 182.800781 223.6875 183.46875 227.207031 C 184.21875 231.226562 185.269531 235.203125 186.894531 238.945312 C 188.519531 242.675781 190.652344 246.226562 193.546875 249.074219 C 195.261719 250.777344 197.257812 252.175781 199.421875 253.21875 C 202.933594 254.734375 206.167969 255.394531 209.070312 255.394531 Z M 178.273438 280.03125 C 190.414062 280.03125 202.625 273.570312 209.09375 261.085938 C 208.625 261.03125 208.160156 260.960938 207.699219 260.875 C 206.734375 260.6875 205.777344 260.445312 204.828125 260.179688 C 204.710938 260.148438 204.605469 260.128906 204.488281 260.097656 C 204.511719 260.097656 204.53125 260.09375 204.546875 260.09375 C 203.96875 259.925781 203.394531 259.75 202.828125 259.546875 L 202.828125 259.558594 C 185.570312 254.992188 180.152344 233.222656 178.632812 215.898438 C 177.429688 215.777344 176.230469 215.65625 175.027344 215.515625 L 174.832031 215.515625 C 174.820312 215.511719 174.816406 215.5 174.804688 215.488281 C 174.746094 215.484375 174.691406 215.480469 174.628906 215.46875 C 167.1875 214.585938 159.703125 213.324219 152.550781 210.859375 C 149.765625 209.921875 147.03125 208.835938 144.359375 207.625 L 144.359375 240.300781 C 144.359375 267.183594 161.214844 280.023438 178.277344 280.023438 Z M 184.28125 177.03125 C 184.28125 177.03125 186.734375 173.363281 197.816406 169.957031 C 197.816406 169.957031 210.691406 166.984375 215.804688 162.152344 C 234.179688 145.027344 226.957031 91.476562 194.738281 91.476562 L 194.382812 91.476562 C 186.992188 91.476562 184.289062 93.28125 184.289062 106.609375 L 184.289062 177.03125 Z M 156.277344 209.957031 C 156.347656 209.957031 156.414062 209.957031 156.484375 209.957031 C 165.070312 209.78125 169.867188 205.804688 169.867188 198.484375 L 169.867188 107.332031 C 169.867188 96.144531 166.765625 92.503906 161.742188 90.921875 C 161.597656 90.921875 161.453125 90.921875 161.3125 90.921875 C 154.625 90.921875 147.945312 92.175781 141.691406 94.539062 C 134.75 97.144531 128.316406 101.03125 122.621094 105.785156 C 111.21875 115.230469 103.761719 129.382812 102.808594 144.160156 C 101.804688 158.925781 106.839844 173.960938 116.300781 185.3125 C 119.652344 189.328125 123.523438 192.894531 127.710938 196.0625 L 127.710938 172.484375 L 125.046875 172.484375 C 124.347656 172.484375 123.800781 171.863281 123.917969 171.152344 C 124.011719 170.589844 124.535156 170.199219 125.105469 170.199219 L 147.253906 170.199219 C 147.953125 170.199219 148.5 170.820312 148.382812 171.535156 C 148.289062 172.09375 147.761719 172.484375 147.195312 172.484375 L 144.351562 172.484375 L 144.351562 205.976562 C 147.183594 207.277344 150.078125 208.433594 153.03125 209.417969 C 153.035156 209.417969 153.042969 209.421875 153.046875 209.421875 C 154.082031 209.777344 155.179688 209.953125 156.273438 209.953125 Z M 171.699219 285.242188 C 149.492188 285.242188 127.503906 270.195312 127.703125 240.300781 L 127.703125 197.863281 C 123.125 194.46875 118.882812 190.601562 115.230469 186.195312 C 105.570312 174.539062 100.480469 159.175781 101.542969 144.074219 C 102.570312 128.933594 110.242188 114.535156 121.855469 104.875 C 127.644531 100.050781 134.195312 96.09375 141.265625 93.4375 C 144.832031 92.089844 148.542969 91.097656 152.308594 90.488281 C 154.695312 90.097656 157.109375 89.925781 159.527344 89.902344 L 163.488281 89.855469 L 194.925781 89.855469 C 239.5 89.863281 250.761719 136.367188 230.203125 161.011719 C 224.339844 168.039062 218.839844 171.125 209.300781 172.515625 C 208.660156 172.605469 208.023438 172.664062 207.375 172.710938 C 204.226562 172.933594 193.15625 174.03125 188.15625 178.6875 C 187.351562 179.441406 186.609375 180.25 185.957031 181.109375 C 185.808594 181.300781 185.667969 181.496094 185.53125 181.695312 C 184.898438 182.941406 184.289062 184.515625 183.738281 186.511719 L 183.363281 188.390625 C 183.261719 188.898438 183.210938 189.414062 183.210938 189.929688 L 183.210938 199.597656 C 183.210938 213.054688 188.300781 214.53125 195.523438 215.515625 C 195.523438 215.515625 205.050781 216.570312 208.351562 217.40625 C 212.027344 218.335938 215.679688 219.5 219.078125 221.292969 C 221.457031 222.546875 223.707031 224.140625 225.636719 226.082031 L 225.636719 189.992188 C 225.636719 186.542969 224.035156 177.03125 213.929688 175.296875 C 222.933594 172.257812 228.878906 168.113281 233.253906 163.753906 C 233.582031 163.421875 233.96875 162.902344 234.40625 162.375 L 234.40625 178.636719 C 234.40625 181.085938 236.421875 182.707031 238.503906 182.707031 C 239.527344 182.707031 240.5625 182.320312 241.386719 181.445312 C 246.203125 176.355469 253.050781 171.363281 261.578125 171.363281 C 267.425781 171.363281 274.820312 172.738281 274.820312 182.542969 C 274.820312 186.269531 272.414062 188.425781 268.972656 188.425781 C 266.046875 188.425781 263.8125 187.054688 262.09375 184.507812 C 260.375 181.960938 258.136719 180.976562 255.042969 180.976562 C 250.449219 180.976562 245.976562 183.808594 241.949219 189.070312 C 236.960938 195.582031 234.40625 203.636719 234.40625 211.84375 L 234.40625 221.890625 C 234.40625 222.109375 234.394531 232.917969 234.390625 237.84375 C 234.386719 239.886719 234.183594 241.921875 233.695312 243.902344 C 232.464844 248.882812 229.886719 254.082031 224.707031 257.492188 C 222.992188 258.578125 221.023438 259.515625 218.804688 260.171875 C 218.527344 260.253906 218.246094 260.328125 217.960938 260.402344 C 217.929688 260.410156 217.898438 260.414062 217.867188 260.425781 C 217.660156 260.476562 217.449219 260.523438 217.238281 260.574219 C 216.28125 260.785156 215.285156 260.9375 214.253906 261.03125 C 214.113281 261.050781 213.976562 261.085938 213.835938 261.101562 C 213.070312 261.203125 212.304688 261.234375 211.535156 261.234375 C 211.527344 261.234375 211.511719 261.234375 211.5 261.234375 C 204.097656 277.207031 187.90625 285.25 171.691406 285.25 Z M 171.699219 285.242188 " clip-rule="nonzero"/></clipPath><linearGradient x1="0.212424" gradientTransform="matrix(284.512443, -1.538608, 1.539375, 284.370533, 39.520352, 188.336605)" y1="0" x2="0.827459" gradientUnits="userSpaceOnUse" y2="0" id="fed788e3da"><stop stop-opacity="1" stop-color="rgb(100%, 81.199646%, 82.398987%)" offset="0"/><stop stop-opacity="1" stop-color="rgb(100%, 81.199646%, 82.398987%)" offset="0.125"/><stop stop-opacity="1" stop-color="rgb(99.861145%, 81.105042%, 82.391357%)" offset="0.140625"/><stop stop-opacity="1" stop-color="rgb(99.572754%, 80.911255%, 82.376099%)" offset="0.15625"/><stop stop-opacity="1" stop-color="rgb(99.275208%, 80.709839%, 82.359314%)" offset="0.171875"/><stop stop-opacity="1" stop-color="rgb(98.977661%, 80.508423%, 82.342529%)" offset="0.1875"/><stop stop-opacity="1" stop-color="rgb(98.680115%, 80.305481%, 82.327271%)" offset="0.203125"/><stop stop-opacity="1" stop-color="rgb(98.382568%, 80.104065%, 82.310486%)" offset="0.21875"/><stop stop-opacity="1" stop-color="rgb(98.085022%, 79.902649%, 82.293701%)" offset="0.234375"/><stop stop-opacity="1" stop-color="rgb(97.787476%, 79.701233%, 82.278442%)" offset="0.25"/><stop stop-opacity="1" stop-color="rgb(97.488403%, 79.499817%, 82.261658%)" offset="0.265625"/><stop stop-opacity="1" stop-color="rgb(97.190857%, 79.298401%, 82.244873%)" offset="0.28125"/><stop stop-opacity="1" stop-color="rgb(96.893311%, 79.095459%, 82.229614%)" offset="0.296875"/><stop stop-opacity="1" stop-color="rgb(96.595764%, 78.894043%, 82.21283%)" offset="0.3125"/><stop stop-opacity="1" stop-color="rgb(96.298218%, 78.692627%, 82.197571%)" offset="0.328125"/><stop stop-opacity="1" stop-color="rgb(96.000671%, 78.491211%, 82.180786%)" offset="0.34375"/><stop stop-opacity="1" stop-color="rgb(95.703125%, 78.289795%, 82.164001%)" offset="0.359375"/><stop stop-opacity="1" stop-color="rgb(95.404053%, 78.088379%, 82.148743%)" offset="0.375"/><stop stop-opacity="1" stop-color="rgb(95.106506%, 77.885437%, 82.131958%)" offset="0.390625"/><stop stop-opacity="1" stop-color="rgb(94.80896%, 77.684021%, 82.115173%)" offset="0.40625"/><stop stop-opacity="1" stop-color="rgb(94.511414%, 77.482605%, 82.099915%)" offset="0.421875"/><stop stop-opacity="1" stop-color="rgb(94.213867%, 77.281189%, 82.08313%)" offset="0.4375"/><stop stop-opacity="1" stop-color="rgb(93.916321%, 77.079773%, 82.066345%)" offset="0.453125"/><stop stop-opacity="1" stop-color="rgb(93.618774%, 76.878357%, 82.051086%)" offset="0.46875"/><stop stop-opacity="1" stop-color="rgb(93.319702%, 76.675415%, 82.034302%)" offset="0.484375"/><stop stop-opacity="1" stop-color="rgb(93.022156%, 76.473999%, 82.017517%)" offset="0.5"/><stop stop-opacity="1" stop-color="rgb(92.724609%, 76.272583%, 82.002258%)" offset="0.515625"/><stop stop-opacity="1" stop-color="rgb(92.427063%, 76.071167%, 81.985474%)" offset="0.53125"/><stop stop-opacity="1" stop-color="rgb(92.129517%, 75.869751%, 81.970215%)" offset="0.546875"/><stop stop-opacity="1" stop-color="rgb(91.83197%, 75.668335%, 81.95343%)" offset="0.5625"/><stop stop-opacity="1" stop-color="rgb(91.534424%, 75.465393%, 81.936646%)" offset="0.578125"/><stop stop-opacity="1" stop-color="rgb(91.235352%, 75.263977%, 81.921387%)" offset="0.59375"/><stop stop-opacity="1" stop-color="rgb(90.937805%, 75.062561%, 81.904602%)" offset="0.609375"/><stop stop-opacity="1" stop-color="rgb(90.640259%, 74.861145%, 81.887817%)" offset="0.625"/><stop stop-opacity="1" stop-color="rgb(90.342712%, 74.659729%, 81.872559%)" offset="0.640625"/><stop stop-opacity="1" stop-color="rgb(90.045166%, 74.458313%, 81.855774%)" offset="0.65625"/><stop stop-opacity="1" stop-color="rgb(89.74762%, 74.255371%, 81.838989%)" offset="0.671875"/><stop stop-opacity="1" stop-color="rgb(89.448547%, 74.053955%, 81.82373%)" offset="0.6875"/><stop stop-opacity="1" stop-color="rgb(89.151001%, 73.852539%, 81.806946%)" offset="0.703125"/><stop stop-opacity="1" stop-color="rgb(88.853455%, 73.651123%, 81.790161%)" offset="0.71875"/><stop stop-opacity="1" stop-color="rgb(88.555908%, 73.449707%, 81.774902%)" offset="0.734375"/><stop stop-opacity="1" stop-color="rgb(88.258362%, 73.248291%, 81.758118%)" offset="0.75"/><stop stop-opacity="1" stop-color="rgb(87.960815%, 73.045349%, 81.742859%)" offset="0.765625"/><stop stop-opacity="1" stop-color="rgb(87.663269%, 72.843933%, 81.726074%)" offset="0.78125"/><stop stop-opacity="1" stop-color="rgb(87.364197%, 72.642517%, 81.70929%)" offset="0.796875"/><stop stop-opacity="1" stop-color="rgb(87.06665%, 72.441101%, 81.694031%)" offset="0.8125"/><stop stop-opacity="1" stop-color="rgb(86.769104%, 72.239685%, 81.677246%)" offset="0.828125"/><stop stop-opacity="1" stop-color="rgb(86.471558%, 72.038269%, 81.660461%)" offset="0.84375"/><stop stop-opacity="1" stop-color="rgb(86.174011%, 71.835327%, 81.645203%)" offset="0.859375"/><stop stop-opacity="1" stop-color="rgb(85.876465%, 71.633911%, 81.628418%)" offset="0.875"/><stop stop-opacity="1" stop-color="rgb(85.578918%, 71.432495%, 81.611633%)" offset="0.890625"/><stop stop-opacity="1" stop-color="rgb(85.279846%, 71.231079%, 81.596375%)" offset="0.90625"/><stop stop-opacity="1" stop-color="rgb(84.9823%, 71.029663%, 81.57959%)" offset="0.921875"/><stop stop-opacity="1" stop-color="rgb(84.684753%, 70.828247%, 81.562805%)" offset="0.9375"/><stop stop-opacity="1" stop-color="rgb(84.387207%, 70.625305%, 81.547546%)" offset="0.953125"/><stop stop-opacity="1" stop-color="rgb(84.089661%, 70.423889%, 81.530762%)" offset="0.96875"/><stop stop-opacity="1" stop-color="rgb(83.792114%, 70.222473%, 81.513977%)" offset="0.984375"/><stop stop-opacity="1" stop-color="rgb(83.494568%, 70.021057%, 81.498718%)" offset="1"/></linearGradient></defs><g clip-path="url(#1b6b74ab87)"><g clip-path="url(#fccfb9de15)"><path fill="url(#fed788e3da)" d="M 99.425781 89.863281 L 100.488281 285.796875 L 275.472656 284.851562 L 274.410156 88.917969 Z M 99.425781 89.863281 " fill-rule="nonzero"/></g></g></svg>